<svg width="174" height="243" viewBox="0 0 174 243" fill="none" xmlns="http://www.w3.org/2000/svg">
<rect width="174" height="243" rx="8" transform="matrix(1 0 0 -1 0 243)" fill="#3A0E2B"/>
<g opacity="0.65">
<g clip-path="url(#clip0_158_553)">
<path d="M160.863 228.609C160.185 229.162 159.369 229.166 158.562 229.154C153.209 229.085 147.852 229.005 142.499 228.932C141.692 228.92 140.885 228.904 140.077 228.904C112.708 228.823 85.3339 228.759 57.9642 228.658C43.363 228.601 28.7658 228.484 14.1646 228.387C13.5874 228.387 13.0101 228.306 12.3077 228.258C12.1301 227.761 11.9121 227.313 11.8192 226.841C11.7345 226.417 11.7829 225.965 11.7869 225.525C11.8354 220.168 11.8677 214.811 11.9363 209.454C12.0695 199.039 12.2189 188.62 12.3602 178.205C12.5136 166.616 12.6629 155.022 12.8163 143.432C12.9576 132.94 13.103 122.453 13.2402 111.961C13.3936 100.299 13.543 88.6323 13.6964 76.9699C13.8377 66.3328 13.9951 55.6958 14.1323 45.0588C14.2534 35.4511 14.3544 25.8395 14.4674 16.2278C14.4714 15.7999 14.5401 15.3679 14.5845 14.8553C15.1173 14.6938 15.5816 14.4798 16.066 14.4152C16.7159 14.3345 17.382 14.3587 18.044 14.3547C45.6357 14.3062 73.2274 14.2618 100.815 14.2094C116.664 14.1811 132.516 14.1569 148.365 14.0963C152.18 14.0802 155.99 13.9349 159.805 13.8501C160.241 13.842 160.677 13.8501 160.952 13.8501C161.711 14.2417 161.872 14.8149 161.92 15.4043C161.985 16.2076 161.993 17.015 161.993 17.8223C161.981 27.0666 162.025 36.315 161.933 45.5593C161.408 98.3166 161.702 151.078 161.501 203.835C161.472 211.392 161.371 218.945 161.303 226.502C161.295 227.233 161.347 227.979 160.859 228.613L160.863 228.609ZM159.236 227.212C159.874 157.077 159.708 87.2153 159.805 17.3581C159.805 16.9302 159.716 16.5023 159.664 16.0502C158.857 15.6303 158.037 15.7474 157.25 15.7514C148.668 15.8079 140.081 15.9008 131.499 15.9412C122.178 15.9896 112.857 16.0017 103.536 16.0138C79.977 16.0461 56.4181 16.0663 32.8592 16.0946C28.0876 16.0986 23.3202 16.1147 18.5486 16.143C17.9068 16.143 17.269 16.2278 16.5383 16.2803C16.4737 16.9746 16.3809 17.5438 16.3687 18.117C16.2275 25.6739 16.0862 33.2268 15.9691 40.7838C15.8157 50.8355 15.6825 60.8872 15.5452 70.9389C15.3838 82.9 15.2304 94.857 15.0689 106.818C14.9437 115.99 14.7944 125.161 14.6692 134.329C14.4997 146.436 14.3463 158.542 14.1808 170.648C14.0556 179.671 13.8942 188.697 13.7933 197.719C13.6923 206.746 13.6479 215.772 13.5874 224.798C13.5874 225.368 13.6721 225.937 13.7206 226.567C14.1767 226.659 14.5239 226.78 14.8751 226.793C16.2678 226.829 17.6646 226.833 19.0573 226.841C48.8531 226.974 78.6448 227.124 108.441 227.233C124.588 227.293 140.731 227.281 156.878 227.297C157.597 227.297 158.316 227.245 159.236 227.208V227.212Z" fill="url(#paint0_linear_158_553)"/>
<path d="M87.6374 59.1149C100.127 59.232 111.652 62.5825 122.164 69.3644C126.25 72.0005 130.068 74.9796 133.443 78.4715C142.393 87.7239 148.198 98.6516 150.697 111.307C151.665 116.224 152.101 121.189 151.859 126.183C151.5 133.639 149.913 140.853 147.055 147.764C143.669 155.946 138.788 163.128 132.341 169.199C123.355 177.66 112.779 183.041 100.612 185.302C97.0593 185.964 93.4787 186.327 89.9021 186.339C80.4841 186.372 71.3972 184.632 62.7544 180.74C54.047 176.821 46.5748 171.242 40.346 164.036C33.3542 155.95 28.6836 146.657 26.3261 136.222C25.5833 132.928 25.1635 129.598 24.9011 126.223C24.2068 117.29 25.6116 108.671 28.6231 100.303C30.8514 94.1142 34.1212 88.4667 38.1944 83.3036C47.798 71.1285 60.183 63.4464 75.3937 60.3583C79.4305 59.5388 83.5077 59.119 87.6293 59.119L87.6374 59.1149ZM88.8121 184.305C92.4251 184.337 95.9896 183.998 99.542 183.368C110.558 181.411 120.4 176.881 128.809 169.522C142.793 157.286 149.704 141.7 149.978 123.179C150.035 119.449 149.546 115.727 148.844 112.042C146.103 97.6747 139.143 85.7378 128.151 76.1543C117.607 66.9625 105.19 62.2233 91.3392 61.1091C87.3145 60.7862 83.2736 60.9799 79.2691 61.5491C71.7969 62.6148 64.6921 64.8351 58.0717 68.5046C47.1884 74.5356 38.7313 82.9524 33.1766 94.1465C28.3243 103.928 26.1 114.262 26.7742 125.218C27.0083 129.041 27.4645 132.819 28.4172 136.513C32.0665 150.702 39.579 162.425 51.2414 171.355C62.3104 179.828 74.8649 184.135 88.8121 184.309V184.305Z" fill="url(#paint1_linear_158_553)"/>
<path d="M128.879 32.6858C131.035 31.826 133.537 32.3225 135.834 31.6887C136.545 29.7591 135.604 27.769 136.504 25.7829C138.256 24.5113 140.295 23.716 142.402 23.9098C143.432 24.4426 143.621 25.1208 143.613 25.8959C143.597 27.2159 143.577 28.5319 143.549 29.852C143.533 30.5786 143.436 31.3093 143.73 31.9229C144.36 32.4921 145.046 32.3427 145.688 32.3467C146.932 32.3467 148.179 32.2942 149.422 32.2942C150.165 32.2942 150.9 32.3629 151.336 33.1016C151.441 35.5116 150.585 37.857 148.934 39.3829C147.372 39.4596 145.632 39.5484 143.847 39.6332C142.838 41.4336 144.223 43.5005 143.068 45.2605C141.873 46.3101 140.364 46.0356 138.923 46.0679C137.966 46.0921 136.997 46.08 136.274 45.204C135.265 43.6741 135.895 41.7929 135.35 39.9884C134.87 39.94 134.385 39.8673 133.901 39.8512C132.875 39.8229 131.846 39.8875 130.829 39.7987C129.811 39.7139 128.952 39.2053 128.705 38.1638C128.298 36.4683 127.777 34.7406 128.879 32.6697V32.6858ZM150.024 33.9211C147.517 33.1016 144.99 34.2037 142.79 33.1379C142.144 31.8098 142.132 31.8098 142.156 30.5423C142.18 29.2222 142.269 27.9062 142.265 26.5862C142.265 26.1825 142.055 25.7829 141.95 25.4155C139.96 25.3388 139.205 25.581 137.59 26.788C137.207 28.6974 137.942 30.7199 137.231 32.5082C136.739 33.1218 136.169 33.2389 135.572 33.259C134.692 33.2873 133.808 33.259 132.932 33.3236C131.927 33.4003 130.881 33.3559 129.985 33.9978C129.702 35.3542 129.828 36.6338 130.276 38.0064C130.752 38.1355 131.228 38.3697 131.709 38.3737C132.803 38.3777 133.901 38.301 134.991 38.192C135.681 38.1234 136.311 38.0992 136.92 38.9752C136.953 39.5282 136.965 40.3235 137.053 41.1147C137.183 42.2531 137.037 43.4601 137.776 44.4976C139.185 44.5662 140.566 44.873 141.853 44.1867C142.293 43.2017 142.035 42.245 142.055 41.3044C142.079 40.3679 141.926 39.3708 142.866 38.5755C144.703 37.8933 146.899 38.9227 148.889 37.6955C149.366 36.5894 149.895 35.3986 150.028 33.9171L150.024 33.9211Z" fill="url(#paint2_linear_158_553)"/>
<path d="M35.4431 29.0406C35.6691 28.6208 35.8306 28.3785 35.9356 28.1121C36.7995 25.8757 38.6564 24.9271 40.8121 24.4588C42.6771 24.0551 44.3402 24.8988 45.2122 26.5983C46.1084 28.3422 46.1689 30.1386 45.188 31.8583C44.647 32.8069 44.0012 33.7193 43.2624 34.5226C41.0825 36.8962 38.8421 39.2093 36.6097 41.5305C36.42 41.7283 36.1092 41.8171 35.8387 41.9625C34.5469 41.6597 33.683 40.707 32.7142 39.9642C30.0943 37.9539 27.5592 35.8467 25.9606 32.8513C25.3672 31.7372 24.9837 30.6109 24.9393 29.3151C24.8666 27.3572 27.0505 24.8948 28.532 24.4507C30.2638 23.93 32.5487 24.7373 33.7839 26.3965C34.3491 27.1554 34.7972 27.9991 35.4471 29.0406H35.4431ZM35.7458 40.3033C38.1316 37.8045 40.4972 35.6125 42.4591 33.0451C42.9031 32.4638 43.323 31.8543 43.6661 31.2124C44.1747 30.2637 44.1546 29.2344 43.9285 28.209C43.7267 27.2846 43.1575 26.6548 42.3097 26.3077C39.2498 26.1825 37.8894 27.0908 37.0255 29.8439C36.7873 30.6109 36.6501 31.4102 36.4038 32.1772C36.2464 32.6576 36.0082 33.1501 35.1888 32.9644C35.0273 32.5728 34.8537 32.1045 34.6478 31.6564C34.0302 30.3324 33.4933 28.9598 32.7505 27.7084C31.9472 26.3682 30.716 25.6254 29.0124 25.8838C27.6278 26.6992 26.7679 27.8982 26.4854 29.7914C26.8527 30.5948 27.2443 31.6201 27.7731 32.5647C29.622 35.8628 32.7021 37.8974 35.7458 40.3033Z" fill="url(#paint3_linear_158_553)"/>
<path d="M140.074 212.7C139.307 213.176 138.686 213.548 138.08 213.939C137.342 214.416 136.635 214.944 135.88 215.388C134.278 216.329 133.285 216.256 131.864 215.114C131.238 214.609 130.608 214.089 130.406 212.934C132.195 208.058 135.101 203.484 137.596 198.809C139.005 198.095 140.414 198.111 141.782 197.986C142.622 197.909 143.348 198.313 143.873 198.995C144.14 199.342 144.402 199.701 144.612 200.085C146.469 203.488 148.334 206.891 150.146 210.318C150.582 211.146 150.825 212.078 151.168 212.991C150.865 213.487 150.659 213.963 150.332 214.335C148.6 216.305 147.466 216.491 145.137 215.227C144.172 214.702 143.231 214.129 142.258 213.628C141.617 213.297 140.926 213.055 140.078 212.692L140.074 212.7ZM140.078 211.021C143.09 211.65 144.971 213.794 147.47 214.452C148.818 213.838 148.814 213.83 149.509 212.801C148.935 210.334 144.39 201.72 142.456 199.467C141.172 199.229 139.925 199.633 138.621 199.895C136.304 203.589 134.209 207.347 132.481 211.303C132.255 211.82 132.174 212.401 132.049 212.861C132.594 213.798 133.22 214.355 134.37 214.569C136.215 213.423 138.189 212.195 140.083 211.021H140.078Z" fill="url(#paint4_linear_158_553)"/>
<path d="M41.7094 208.033C41.3219 208.32 40.8899 208.72 40.3853 208.998C36.5544 211.138 32.7154 213.261 28.8683 215.372C28.1699 215.756 27.4594 216.184 26.2726 215.877C25.5904 215.364 24.6619 214.67 23.7536 213.992C23.6244 213.406 23.4226 212.914 23.4186 212.417C23.3863 207.589 23.3822 202.761 23.3903 197.929C23.3903 197.655 23.5679 197.38 23.7011 196.997C24.8395 196.343 26.0304 195.665 27.1042 195.051C29.6676 195.62 35.0365 198.276 40.5912 201.708C41.1927 202.079 41.7054 202.604 42.1736 202.991C42.3836 204.788 42.4603 206.382 41.7094 208.033ZM26.8176 214.714C29.3083 214.117 38.0076 209.454 40.6921 207.355C40.9909 206.047 41.2169 204.691 40.6074 203.193C36.4333 200.779 32.2108 198.288 27.8187 196.323C26.5915 196.772 25.5904 197.407 24.8153 198.228C24.5691 201.005 24.6538 211.19 24.9687 213.16C25.4975 213.604 26.1555 214.157 26.8176 214.714Z" fill="url(#paint5_linear_158_553)"/>
<path d="M145.822 180.845C144.72 181.047 143.929 180.587 143.166 180.252C140.554 179.101 138.027 177.777 135.799 175.961C135.298 175.553 134.782 175.117 134.652 174.237C134.943 174.136 135.27 173.902 135.536 173.959C136.025 174.059 136.505 174.29 136.941 174.544C139.02 175.763 141.103 176.982 143.146 178.266C143.945 178.766 144.656 179.416 145.378 180.03C145.564 180.187 145.633 180.478 145.826 180.841L145.822 180.845Z" fill="url(#paint6_linear_158_553)"/>
<path d="M32.2228 178.888C32.5336 177.103 33.3248 176.147 34.0515 175.19C35.315 173.527 36.409 171.69 38.3184 170.527C38.5929 170.681 38.8311 170.814 38.9925 170.907C39.0491 171.084 39.1056 171.165 39.0854 171.222C38.6333 172.828 37.4101 173.926 36.409 175.149C35.3271 176.469 34.3098 177.907 32.2188 178.892L32.2228 178.888Z" fill="url(#paint7_linear_158_553)"/>
<path d="M119.436 194.805C119.162 194.744 118.912 194.756 118.758 194.643C116.461 192.899 114.592 190.768 113.155 188.273C112.978 187.962 113.095 187.482 113.07 186.929C113.514 187.018 113.874 186.977 114.035 187.135C116.159 189.254 118.12 191.515 119.533 194.187C119.606 194.324 119.481 194.571 119.436 194.805Z" fill="url(#paint8_linear_158_553)"/>
<path d="M131.063 69.2029C130.514 68.4965 130.837 67.9596 131.075 67.4389C132.064 65.267 134.034 62.8732 135.576 61.9447C136.142 62.082 136.182 62.518 136.097 62.966C136.029 63.3173 135.891 63.6685 135.722 63.9874C134.822 65.6788 133.695 67.2088 132.294 68.5167C131.955 68.8316 131.467 68.985 131.063 69.207V69.2029Z" fill="url(#paint9_linear_158_553)"/>
<path d="M88.0373 200.081C87.2542 199.338 87.1734 198.68 87.129 198.034C87.0039 196.29 86.8666 194.546 86.8262 192.802C86.8061 191.939 86.9393 191.059 87.1008 190.207C87.1532 189.928 87.5165 189.714 87.8153 189.387C88.0736 189.734 88.3804 189.952 88.3885 190.183C88.4652 193.016 88.5136 195.854 88.5217 198.688C88.5217 199.076 88.2634 199.463 88.0373 200.081Z" fill="url(#paint10_linear_158_553)"/>
<path d="M53.3867 192.076C53.415 191.648 53.3544 191.289 53.4715 191.002C54.4242 188.64 55.4455 186.307 57.0199 184.273C57.2136 184.022 57.6173 183.942 57.908 183.788C58.1623 183.97 58.3318 184.095 58.4691 184.192C58.8284 184.943 58.4489 185.504 58.1219 186.069C55.9824 189.783 54.844 191.252 53.3867 192.072V192.076Z" fill="url(#paint11_linear_158_553)"/>
<path d="M150.209 77.6924C150.362 77.9709 150.463 78.1526 150.617 78.4271C149.741 79.6301 148.469 80.3648 147.234 81.0914C145.752 81.9593 144.384 83.1138 142.458 83.3318C142.458 83.0533 142.378 82.803 142.47 82.6819C143.665 81.0672 147.912 78.31 150.209 77.6924Z" fill="url(#paint12_linear_158_553)"/>
<path d="M24.9842 75.9848C27.0511 76.5459 28.7546 77.9063 30.5308 79.1214C31.431 79.7391 31.4068 79.7754 31.98 81.043C31.6853 81.0874 31.3826 81.2327 31.1606 81.156C28.8474 80.3769 26.825 79.0972 25.0407 77.4461C24.6774 77.1071 24.3585 76.6388 24.9842 75.9848Z" fill="url(#paint13_linear_158_553)"/>
<path d="M154.926 160.084C154.013 160.589 153.319 160.197 152.689 159.943C150.812 159.188 148.875 158.542 147.24 157.299C147.11 157.202 147.123 156.919 147.078 156.762C147.482 156.16 148.007 156.334 148.487 156.443C150.748 156.955 153.602 158.55 154.926 160.084Z" fill="url(#paint14_linear_158_553)"/>
<path d="M87.1489 53.4634C86.2649 53.31 86.2124 52.6883 86.1316 52.1231C85.8571 50.137 85.5584 48.1428 86.3739 45.9185C86.7695 46.3222 87.1207 46.5119 87.1812 46.7743C87.6455 48.6918 87.7141 50.6537 87.6051 52.6156C87.5889 52.9184 87.2943 53.205 87.1489 53.4593V53.4634Z" fill="url(#paint15_linear_158_553)"/>
<path d="M44.4636 67.4873C42.8045 66.692 41.8921 65.1742 40.8829 63.7775C40.3864 63.0872 39.7526 62.3928 40.0917 61.2544C40.338 61.2544 40.7053 61.1414 40.8466 61.2706C42.5865 62.8732 43.9751 64.7342 44.7098 67.015C44.7381 67.1078 44.5887 67.2572 44.4636 67.4833V67.4873Z" fill="url(#paint16_linear_158_553)"/>
<path d="M21.7266 160.803C22.869 159.099 25.4768 157.492 28.3671 156.628C28.5084 156.741 28.6659 156.871 28.8072 156.984C28.7991 157.165 28.8435 157.347 28.7749 157.436C28.5528 157.718 28.3348 158.053 28.0361 158.215C26.3689 159.103 24.6896 159.967 22.9861 160.778C22.6671 160.928 22.215 160.798 21.7266 160.798V160.803Z" fill="url(#paint17_linear_158_553)"/>
<path d="M112.496 58.2107C112.004 57.5729 112.347 56.9471 112.601 56.3699C113.312 54.739 113.833 52.987 115.173 51.7921C115.79 51.8769 115.887 52.2281 115.867 52.5995C115.851 52.9547 115.819 53.3423 115.669 53.6571C115.048 54.9691 114.402 56.269 113.716 57.5446C113.481 57.9806 113.146 58.4206 112.5 58.2066L112.496 58.2107Z" fill="url(#paint18_linear_158_553)"/>
<path d="M61.6869 50.9282C63.0473 51.8809 63.3783 53.3786 64.0323 54.6542C64.4885 55.5423 64.9931 56.4587 64.8033 57.6294C64.5248 57.5769 64.2584 57.6092 64.1655 57.5002C62.7002 55.7401 61.6143 53.7823 60.9805 51.5055C61.255 51.2835 61.4609 51.118 61.6869 50.9323V50.9282Z" fill="url(#paint19_linear_158_553)"/>
<path d="M88.1197 81.9593C97.6426 81.8543 105.535 84.4581 112.534 89.6373C120.208 95.3171 125.162 102.886 127.224 112.199C130.058 124.992 127.087 136.489 118.913 146.649C114.25 152.446 108.304 156.511 101.377 159.151C97.8646 160.488 94.2234 161.214 90.457 161.525C84.7247 161.997 79.1418 161.339 73.8092 159.305C60.1405 154.093 51.6712 144.332 48.7445 129.917C48.1874 127.18 47.8645 124.402 48.0058 121.609C48.466 112.716 51.2514 104.662 56.8303 97.6504C62.2396 90.8484 69.0941 86.1455 77.406 83.5942C81.1481 82.4437 84.975 81.8301 88.1237 81.9674L88.1197 81.9593ZM87.5344 159.676C92.2292 159.854 97.146 158.792 101.893 156.895C107.928 154.481 113.051 150.779 117.213 145.769C122.021 139.993 125.008 133.421 125.993 125.941C126.583 121.468 126.546 117.023 125.553 112.615C123.777 104.711 119.865 98.0622 113.79 92.6932C107.581 87.2031 100.275 84.2118 92.0839 83.5538C83.8164 82.8878 76.0778 84.8335 68.9165 89.0359C55.0985 97.1418 47.4568 113.907 50.5893 129.679C54.065 147.166 69.7037 159.979 87.5303 159.676H87.5344Z" fill="url(#paint20_linear_158_553)"/>
<path d="M28.7098 200.848C29.2266 200.929 29.5414 200.908 29.7877 201.025C31.8343 202.006 33.8729 203.004 35.9035 204.017C36.3758 204.255 36.7472 204.61 36.6705 205.224C35.2374 206.806 31.0189 209.192 28.7583 209.684C27.9146 208.873 28.1406 207.779 28.1608 206.798C28.2012 204.869 27.6966 202.87 28.7098 200.848ZM34.971 205.066C33.3159 204.001 31.6285 203.117 29.6302 202.507V208.078C31.4508 207.581 33.2472 206.572 34.971 205.066Z" fill="url(#paint21_linear_158_553)"/>
<path d="M105.58 142.673C104.829 143.327 104.155 143.283 103.501 143.279C101.886 143.263 100.276 143.246 98.661 143.198C96.025 143.121 93.3889 143.004 90.7488 142.932C84.738 142.77 78.7312 142.629 72.7204 142.471C72.3611 142.463 72.0058 142.374 71.7596 142.338C70.9845 141.769 70.9482 141.018 70.8271 140.299C69.9107 134.813 68.9903 129.323 68.0619 123.761C67.3675 123.462 66.7095 123.179 65.882 122.824C64.7799 121.117 64.9172 119.005 64.7234 117.003C64.5862 115.586 64.2794 114.076 65.2886 112.611C67.3595 112.118 69.5636 112.546 71.7233 112.344C71.7313 111.622 71.0976 111.525 70.7504 111.198C68.6432 109.212 67.8277 106.867 68.6472 104.033C69.059 102.612 69.6685 101.288 70.5526 100.093C72.5872 97.3396 75.7924 96.4636 78.9411 97.7998C80.899 98.6274 82.3643 100.056 83.5592 101.756C84.4433 103.011 85.2063 104.356 86.0096 105.668C86.8492 107.044 87.6647 108.437 88.5044 109.813C88.6456 110.048 88.8596 110.233 89.0655 110.471C90.2927 108.433 91.4472 106.483 92.6381 104.553C93.0983 103.807 93.6029 103.084 94.1357 102.382C96.2954 99.5195 99.2423 97.9774 102.742 97.6343C105.314 97.384 107.304 98.6314 108.511 100.9C110.182 104.033 110.465 107.88 107.659 111.174C107.393 111.489 106.924 111.699 107.005 112.401H112.318C113.254 112.946 113.541 113.56 113.46 114.242C113.125 117.076 112.737 119.901 112.358 122.731C112.338 122.868 112.241 122.998 112.233 123.01C111.587 124.063 110.473 123.853 109.476 124.326C109.29 125.089 109.056 125.928 108.886 126.776C107.97 131.301 107.078 135.827 106.161 140.352C105.988 141.204 105.746 142.039 105.584 142.673H105.58ZM69.5474 123.801C70.375 129.469 71.3761 134.987 72.4983 140.38C74.4723 141.135 75.5865 141.208 83.7893 141.123C84.4231 141.115 85.1255 141.293 85.7593 140.554C85.7593 140.041 85.7755 139.387 85.7593 138.737C85.6624 135.589 85.5494 132.444 85.4565 129.295C85.4121 127.83 85.4243 126.364 85.3597 124.899C85.3435 124.491 85.1578 124.096 85.065 123.736C80.4307 123.276 71.6748 123.28 69.5515 123.801H69.5474ZM92.5614 141.389C96.6708 141.507 100.445 141.616 104.212 141.724C104.377 141.329 104.535 141.071 104.591 140.792C105.625 135.706 106.654 130.615 107.659 125.525C107.736 125.129 107.671 124.705 107.671 124.245C107.231 124.184 106.949 124.108 106.666 124.108C102.423 124.092 98.1806 124.088 93.9379 124.084C93.8733 124.084 93.8007 124.128 93.7441 124.168C93.6836 124.209 93.6392 124.269 93.4373 124.463C93.1548 129.913 92.8641 135.516 92.5614 141.389ZM93.4737 121.932C94.7897 122.328 95.8958 122.162 96.9817 122.194C100.498 122.295 104.014 122.38 107.53 122.449C108.624 122.469 109.714 122.416 110.667 121.964C111.623 118.121 111.861 115.873 111.502 113.987C111.046 113.955 110.545 113.895 110.049 113.895C109.169 113.895 108.289 113.963 107.413 113.955C103.307 113.931 99.2019 113.887 95.1005 113.87C94.6121 113.87 94.1236 113.979 93.4939 114.056C93.4172 116.716 93.3243 119.256 93.4777 121.932H93.4737ZM67.198 121.593C70.27 121.875 73.2653 121.791 76.2526 121.734C79.2237 121.678 82.1867 122.4 85.1417 121.916C85.3516 119.918 85.0286 115.15 84.6007 113.935C84.2172 113.887 83.7893 113.79 83.3614 113.79C78.0167 113.774 72.6719 113.765 67.3272 113.774C66.9961 113.774 66.6692 113.951 66.2251 114.08C66.5884 116.551 66.2291 118.997 67.198 121.593ZM107.239 102.535C106.428 100.226 105.237 99.2531 103.089 99.2813C102.153 99.2934 101.196 99.467 100.296 99.7254C98.1766 100.331 96.473 101.635 95.2297 103.403C93.7603 105.494 92.4725 107.714 91.1565 109.906C90.7529 110.58 90.4259 111.327 90.4703 112.244C91.9558 112.502 93.3889 112.498 94.8866 112.227C96.5134 109.737 98.8386 107.932 101.006 105.97C102.593 104.533 104.329 103.322 106.484 102.87C106.751 102.814 106.993 102.644 107.239 102.531V102.535ZM87.8827 112.248C87.7979 111.909 87.7898 111.606 87.6526 111.38C85.9127 108.501 84.2051 105.603 82.3845 102.781C81.5529 101.489 80.4146 100.428 79.042 99.6648C76.2364 98.1066 73.3663 98.7323 71.5134 101.34C71.2913 101.655 71.2187 102.075 71.0612 102.487C75.1142 102.918 75.3201 103.532 77.4717 104.856C78.2791 105.353 79.0017 105.982 79.7808 106.527C81.1816 107.508 82.2997 108.74 83.2 110.189C83.6561 110.928 84.1567 111.638 84.6653 112.401C85.4808 112.401 86.2074 112.413 86.934 112.393C87.2166 112.385 87.4992 112.308 87.8827 112.244V112.248ZM91.0516 141.163C91.096 139.734 91.1364 138.426 91.1727 137.118C91.2857 133.324 91.4028 129.529 91.4997 125.735C91.5158 125.169 91.6531 124.552 91.0758 124.031C89.8688 123.975 88.581 123.583 87.2126 124.269C87.0874 129.816 87.1116 135.342 87.3014 140.808C88.4451 141.239 89.6952 141.357 91.0516 141.163ZM70.2498 104.408C69.3779 106.838 69.8784 108.764 71.8242 110.35C73.3905 111.63 75.2151 112.336 77.2456 112.397C78.6303 112.437 80.0189 112.413 81.4036 112.397C81.7306 112.397 82.0535 112.316 82.3845 112.272C82.3361 111.981 82.3482 111.82 82.2836 111.703C80.2773 108.178 77.0357 106.104 73.5358 104.384C72.5589 103.903 71.4245 103.843 70.2539 104.4L70.2498 104.408ZM107.554 104.295C106.521 104.214 105.661 104.683 104.858 105.127C101.899 106.762 99.3715 108.958 97.0786 111.424C96.9009 111.614 96.8485 111.917 96.6426 112.377C98.4995 112.377 100.167 112.405 101.826 112.369C104.962 112.304 107.498 109.987 107.869 106.834C107.97 105.991 108.123 105.102 107.55 104.295H107.554ZM87.0148 113.923C86.5626 115.957 86.6353 119.865 87.1399 121.98C88.6739 122.106 90.2361 122.404 91.8953 121.795C91.9356 119.187 91.9922 116.648 91.7863 113.992C90.1635 113.745 88.6497 113.745 87.0107 113.923H87.0148Z" fill="url(#paint22_linear_158_553)"/>
<path d="M141.682 121.807C141.645 123.975 140.24 125.525 139.195 127.156C138.206 128.613 137.653 129.804 138.21 131.544C139.881 136.521 141.161 138.842 136.252 142.56C135.275 143.376 134.322 144.017 133.741 144.986C133.249 145.943 133.346 146.956 133.301 148.183C133.305 150.073 133.325 152.6 131.929 154.19C129.93 156.649 126.422 156.455 124.255 158.175C122.511 160.322 122.704 163.834 120.242 165.82C118.651 167.201 116.145 167.193 114.259 167.197C113.036 167.241 112.015 167.177 111.078 167.693C110.126 168.295 109.54 169.268 108.761 170.269C105.156 175.347 102.666 174.213 97.4945 172.667C96.8244 172.525 96.2067 172.429 95.5931 172.61C94.1278 173.091 92.7552 174.435 91.2495 175.279C87.6688 177.491 85.0893 175.828 82.1707 173.628C81.1251 172.925 80.4348 172.392 79.3126 172.404C77.0116 172.542 75.0699 173.845 72.559 173.817C69.1479 173.866 67.4766 170.237 65.5874 168.125C64.5096 166.906 63.1088 166.955 61.4981 166.902C57.6793 166.938 55.0997 166.402 53.7393 162.409C53.1257 160.887 52.8149 159.006 51.7936 157.888C50.6996 156.842 48.8063 156.503 47.2925 155.882C41.7863 153.867 43.3889 150.202 42.7511 145.701C42.3878 144.082 40.983 143.315 39.6992 142.298C38.5528 141.422 37.1439 140.364 36.5384 138.866C35.8723 137.377 36.3164 135.463 36.7524 134.095C37.1803 132.545 37.9957 130.861 37.5759 129.364C37.366 128.69 36.934 127.967 36.4294 127.24C33.0667 122.743 32.9941 120.923 36.4819 116.397C37.5194 114.972 38.1047 113.81 37.6445 112.038C36.9865 109.317 35.2305 105.894 37.6203 103.427C38.9 101.978 40.5995 101.138 41.9114 99.8868C43.2476 98.7081 43.2476 97.1297 43.288 95.4302C43.3203 94.0455 43.2799 92.4227 43.8572 91.0623C45.2701 87.6875 49.755 88.1316 52.1246 86.0607C53.9291 84.0261 53.7514 80.8128 55.7577 78.75C57.2312 77.2443 59.5927 77.3169 61.4941 77.3008C63.2097 77.2766 64.8366 77.2725 66.0395 75.9323C67.9207 73.9745 69.3497 70.5068 72.559 70.5109C76.5676 70.5997 78.8928 73.6354 82.6228 70.6481C85.2387 68.7548 87.572 67.0109 90.7853 69.0899C92.3273 69.982 93.6797 71.3384 95.3105 71.8874C97.9547 72.5373 100.437 70.5189 103.17 70.5876C105.294 70.5391 106.864 72.3759 107.966 73.9179C108.999 75.2501 109.936 76.8204 111.644 77.1716C113.375 77.5511 115.236 77.2524 117.065 77.5188C120.67 77.8781 121.34 81.2084 122.341 84.006C122.939 85.7741 123.903 86.7227 125.667 87.3162C128.065 88.1599 131.424 88.8744 132.058 91.8495C132.34 93.0283 132.336 94.2999 132.352 95.4342C132.385 97.1458 132.397 98.7767 133.745 99.9716C135.053 101.231 136.745 102.079 138.016 103.52C138.727 104.291 139.231 105.429 139.211 106.499C139.296 109.228 137.281 111.703 137.907 114.323C138.811 116.934 141.577 118.759 141.669 121.807H141.682ZM140.067 121.807C139.776 118.666 135.973 116.583 136.191 113.172C136.244 111.711 136.789 110.29 137.185 108.97C137.532 107.755 137.887 106.608 137.443 105.486C136.002 102.68 131.751 101.825 131.081 98.365C130.669 96.4798 130.94 94.6228 130.697 92.8224C130.584 91.9908 130.318 91.3126 129.825 90.8161C128.602 89.714 126.745 89.3548 125.147 88.7371C122.991 88.0105 121.675 86.6783 120.952 84.5429C120.06 82.3024 119.749 79.2425 116.867 78.9922C111.728 78.5805 110.11 79.6422 106.811 74.7899C105.826 73.5102 104.87 72.061 103.166 72.0408C100.966 72.0933 98.8105 73.4295 96.5176 73.4981C94.9795 73.6273 93.4052 72.6907 92.2668 71.8874C90.9064 70.9549 89.4854 69.7035 87.8828 69.6268C85.2144 69.8852 83.4786 72.5131 80.8627 73.3003C78.045 74.1521 75.296 72.1014 72.5953 72.0449C69.6969 72.0893 68.4616 76.6428 65.9386 78.0113C63.7951 79.2748 61.163 78.6572 58.8944 78.9963C58.0628 79.1093 57.3846 79.3757 56.888 79.8682C56.3915 80.389 56.0161 81.1317 55.7133 81.9553C55.0271 83.7436 54.688 85.6691 53.263 87.1991C51.733 88.6241 49.8034 88.9632 48.0191 89.6494C46.4044 90.2307 45.2418 91.026 45.0642 92.8305C44.7211 95.5351 45.4921 99.0431 43.0902 101.098C41.754 102.386 40.0989 103.254 38.9201 104.557C37.7333 105.813 38.0926 107.407 38.577 108.978C39.7033 112.401 40.2725 114.343 37.9594 117.431C37.0269 118.791 35.7755 120.212 35.6988 121.815C35.7795 123.417 37.0349 124.838 37.9594 126.199C40.2927 129.299 39.6871 131.265 38.577 134.652C38.0926 136.218 37.7293 137.817 38.9201 139.072C40.107 140.376 41.758 141.244 43.0902 142.532C45.5002 144.587 44.7211 148.091 45.0642 150.799C45.2499 152.6 46.4004 153.399 48.0191 153.98C49.8075 154.667 51.733 155.006 53.263 156.431C55.2693 158.514 55.1078 161.695 56.888 163.757C57.3805 164.25 58.0628 164.516 58.8944 164.629C61.163 164.964 63.7951 164.347 65.9386 165.614C68.3284 167.031 69.1438 170.152 71.5579 171.379C72.6801 171.823 73.8266 171.464 75.0416 171.121C76.8501 170.584 78.9089 169.732 80.8627 170.329C83.4786 171.121 85.2144 173.749 87.8828 174.003C89.4854 173.922 90.9064 172.667 92.2668 171.742C96.6992 168.396 98.7903 171.238 103.166 171.589C103.945 171.581 104.551 171.298 105.136 170.786C106.44 169.599 107.308 167.948 108.596 166.616C110.65 164.206 114.154 164.985 116.863 164.642C118.664 164.456 119.463 163.305 120.044 161.687C120.73 159.898 121.07 157.973 122.495 156.443C124.578 154.436 127.763 154.598 129.821 152.818C130.314 152.325 130.58 151.643 130.693 150.811C131.028 148.543 130.411 145.911 131.678 143.767C133.095 141.377 136.216 140.562 137.443 138.148C137.887 137.026 137.528 135.879 137.185 134.664C136.789 133.344 136.244 131.923 136.191 130.462C135.969 127.051 139.78 124.968 140.067 121.827V121.807Z" fill="url(#paint23_linear_158_553)"/>
</g>
</g>
<defs>
<linearGradient id="paint0_linear_158_553" x1="86.8815" y1="294.067" x2="86.8815" y2="13.8465" gradientUnits="userSpaceOnUse">
<stop stop-color="#FFCCA3"/>
<stop offset="1" stop-color="#FEFAF3"/>
</linearGradient>
<linearGradient id="paint1_linear_158_553" x1="88.3258" y1="224.695" x2="88.3258" y2="59.1149" gradientUnits="userSpaceOnUse">
<stop stop-color="#FFCCA3"/>
<stop offset="1" stop-color="#FEFAF3"/>
</linearGradient>
<linearGradient id="paint2_linear_158_553" x1="139.782" y1="52.7695" x2="139.782" y2="23.8808" gradientUnits="userSpaceOnUse">
<stop stop-color="#FFCCA3"/>
<stop offset="1" stop-color="#FEFAF3"/>
</linearGradient>
<linearGradient id="paint3_linear_158_553" x1="35.4208" y1="47.289" x2="35.4208" y2="24.2938" gradientUnits="userSpaceOnUse">
<stop stop-color="#FFCCA3"/>
<stop offset="1" stop-color="#FEFAF3"/>
</linearGradient>
<linearGradient id="paint4_linear_158_553" x1="140.787" y1="221.483" x2="140.787" y2="197.976" gradientUnits="userSpaceOnUse">
<stop stop-color="#FFCCA3"/>
<stop offset="1" stop-color="#FEFAF3"/>
</linearGradient>
<linearGradient id="paint5_linear_158_553" x1="32.852" y1="222.292" x2="32.852" y2="195.051" gradientUnits="userSpaceOnUse">
<stop stop-color="#FFCCA3"/>
<stop offset="1" stop-color="#FEFAF3"/>
</linearGradient>
<linearGradient id="paint6_linear_158_553" x1="140.239" y1="182.988" x2="140.239" y2="173.95" gradientUnits="userSpaceOnUse">
<stop stop-color="#FFCCA3"/>
<stop offset="1" stop-color="#FEFAF3"/>
</linearGradient>
<linearGradient id="paint7_linear_158_553" x1="35.6542" y1="181.413" x2="35.6542" y2="170.527" gradientUnits="userSpaceOnUse">
<stop stop-color="#FFCCA3"/>
<stop offset="1" stop-color="#FEFAF3"/>
</linearGradient>
<linearGradient id="paint8_linear_158_553" x1="116.305" y1="197.179" x2="116.305" y2="186.929" gradientUnits="userSpaceOnUse">
<stop stop-color="#FFCCA3"/>
<stop offset="1" stop-color="#FEFAF3"/>
</linearGradient>
<linearGradient id="paint9_linear_158_553" x1="133.446" y1="71.3963" x2="133.446" y2="61.9447" gradientUnits="userSpaceOnUse">
<stop stop-color="#FFCCA3"/>
<stop offset="1" stop-color="#FEFAF3"/>
</linearGradient>
<linearGradient id="paint10_linear_158_553" x1="87.673" y1="203.305" x2="87.673" y2="189.387" gradientUnits="userSpaceOnUse">
<stop stop-color="#FFCCA3"/>
<stop offset="1" stop-color="#FEFAF3"/>
</linearGradient>
<linearGradient id="paint11_linear_158_553" x1="56.0006" y1="194.574" x2="56.0006" y2="183.788" gradientUnits="userSpaceOnUse">
<stop stop-color="#FFCCA3"/>
<stop offset="1" stop-color="#FEFAF3"/>
</linearGradient>
<linearGradient id="paint12_linear_158_553" x1="146.521" y1="85.032" x2="146.521" y2="77.6924" gradientUnits="userSpaceOnUse">
<stop stop-color="#FFCCA3"/>
<stop offset="1" stop-color="#FEFAF3"/>
</linearGradient>
<linearGradient id="paint13_linear_158_553" x1="28.3045" y1="82.7435" x2="28.3045" y2="75.9848" gradientUnits="userSpaceOnUse">
<stop stop-color="#FFCCA3"/>
<stop offset="1" stop-color="#FEFAF3"/>
</linearGradient>
<linearGradient id="paint14_linear_158_553" x1="151.002" y1="161.533" x2="151.002" y2="156.333" gradientUnits="userSpaceOnUse">
<stop stop-color="#FFCCA3"/>
<stop offset="1" stop-color="#FEFAF3"/>
</linearGradient>
<linearGradient id="paint15_linear_158_553" x1="86.747" y1="55.7379" x2="86.747" y2="45.9185" gradientUnits="userSpaceOnUse">
<stop stop-color="#FFCCA3"/>
<stop offset="1" stop-color="#FEFAF3"/>
</linearGradient>
<linearGradient id="paint16_linear_158_553" x1="42.3547" y1="69.3801" x2="42.3547" y2="61.2087" gradientUnits="userSpaceOnUse">
<stop stop-color="#FFCCA3"/>
<stop offset="1" stop-color="#FEFAF3"/>
</linearGradient>
<linearGradient id="paint17_linear_158_553" x1="25.2702" y1="162.123" x2="25.2702" y2="156.628" gradientUnits="userSpaceOnUse">
<stop stop-color="#FFCCA3"/>
<stop offset="1" stop-color="#FEFAF3"/>
</linearGradient>
<linearGradient id="paint18_linear_158_553" x1="114.058" y1="60.2131" x2="114.058" y2="51.7921" gradientUnits="userSpaceOnUse">
<stop stop-color="#FFCCA3"/>
<stop offset="1" stop-color="#FEFAF3"/>
</linearGradient>
<linearGradient id="paint19_linear_158_553" x1="62.9124" y1="59.6496" x2="62.9124" y2="50.9282" gradientUnits="userSpaceOnUse">
<stop stop-color="#FFCCA3"/>
<stop offset="1" stop-color="#FEFAF3"/>
</linearGradient>
<linearGradient id="paint20_linear_158_553" x1="88.1218" y1="185.705" x2="88.1218" y2="81.9484" gradientUnits="userSpaceOnUse">
<stop stop-color="#FFCCA3"/>
<stop offset="1" stop-color="#FEFAF3"/>
</linearGradient>
<linearGradient id="paint21_linear_158_553" x1="32.3754" y1="212.348" x2="32.3754" y2="200.848" gradientUnits="userSpaceOnUse">
<stop stop-color="#FFCCA3"/>
<stop offset="1" stop-color="#FEFAF3"/>
</linearGradient>
<linearGradient id="paint22_linear_158_553" x1="89.0216" y1="157.177" x2="89.0216" y2="97.1849" gradientUnits="userSpaceOnUse">
<stop stop-color="#FFCCA3"/>
<stop offset="1" stop-color="#FEFAF3"/>
</linearGradient>
<linearGradient id="paint23_linear_158_553" x1="87.7841" y1="208.934" x2="87.7841" y2="68.1481" gradientUnits="userSpaceOnUse">
<stop stop-color="#FFCCA3"/>
<stop offset="1" stop-color="#FEFAF3"/>
</linearGradient>
<clipPath id="clip0_158_553">
<rect width="150.226" height="215.316" fill="white" transform="translate(11.7734 13.8419)"/>
</clipPath>
</defs>
</svg>
